<svg version="1" xmlns="http://www.w3.org/2000/svg" width="346.667" height="346.667" viewBox="0 0 260.000000 260.000000"><path d="M116 2.7C88.5 7.3 71.1 14.3 52 28.4c-7.2 5.3-21.2 20.3-26.9 28.5C9.9 79.1 3 100.4 2.4 127c-.9 39.6 14.9 74.9 45.1 100.6 23.2 19.8 50 29.7 81 29.8 19.3.1 25.4-.8 41.4-6 43.6-14.3 75.8-50.5 85.7-96.4 2.2-10.3 2.7-32.3.9-43.5-1.9-12.1-1.9-11.8-5.5-22.6-14.2-42.6-50.7-74.8-95.5-84.4-7.6-1.6-33.7-2.8-39.5-1.8zm33.1 10.9c49.1 7.9 88.6 47.1 97.3 96.4 2.3 13.5 1.5 35.9-1.8 48.4-8 30-24.5 53.2-50.1 70.3-29.7 19.9-68 24.6-103.2 12.8-31.8-10.7-59.6-37.8-71.9-70-6.6-17.4-9-42.7-5.7-61.4 7.2-41.7 37.1-77.2 77.1-91.5 4-1.4 8.5-2.8 10-3.1 16.9-3.6 33.9-4.3 48.3-1.9z"/><path d="M127.7 22.6c-.1.1-3.3.4-7.2.8-8.8.7-11.3 1.2-20.3 3.7-7.3 2-14.2 4.6-14.2 5.3C86 33 171.7 91 172.5 91c.7 0 .5-1.4-1-9-.3-1.4-.9-5-1.5-8s-1.2-6.6-1.5-8c-.3-1.4-1.9-9.9-3.5-19-1.7-9.1-3.3-17.2-3.6-18.2-.4-1.4-3.1-2.4-11.4-4.3-3.5-.8-21.7-2.4-22.3-1.9zm40.3 7.7c0 .2 1.3 7.3 3 15.8 1.6 8.5 3.2 17 3.5 18.9.3 1.9 1.5 8 2.6 13.5s2.2 11.5 2.5 13.4c.3 1.8.8 4.2 1 5.2.8 3.5 1.1 5.3 4 20.7 1.5 8.4 3.1 15.1 3.5 15 .4-.2 8.8-12 18.7-26.3l18-26-2.3-4.5c-5.4-10.7-17.9-24.3-30.5-33.2-9.7-6.8-24-14.3-24-12.5zm-95 7.4c-16.6 9.8-31.7 26.6-41.3 45.8-2 3.8-3.3 7.3-3.1 7.6.2.4 2.3.2 4.6-.3 2.4-.5 5.4-1.2 6.8-1.4 1.4-.2 3.6-.7 5-.9 1.4-.3 3.9-.8 5.5-1.1 1.7-.2 8.6-1.6 15.5-2.9 6.9-1.3 14.1-2.7 16-3 1.9-.3 8-1.5 13.5-2.5 5.5-1.1 11.1-2.1 12.5-2.4 10.1-1.8 20.6-3.9 22-4.4 1.3-.5-5-5.4-24.5-19C91 43.2 78.8 35 78.3 35c-.4 0-2.8 1.2-5.3 2.7zm143.3 65.6c-13.5 20.2-33.7 50-41.9 62l-5.4 7.9 4.5-.6c2.5-.4 5-.8 5.7-1.1.7-.2 3-.6 5-.9 2.1-.3 5.7-1 8-1.5 2.4-.6 5.7-1.2 7.3-1.5 32.5-5.8 33.4-6 34.4-8.6 3.9-10 5.3-25.7 3.6-41.1-.8-7.6-4.6-22.7-7.2-28.6l-1.8-4.1-12.2 18.1zM66.7 90.5c-12.5 2.4-24.2 4.6-26 4.9-1.8.3-4.3.8-5.7 1.1-1.4.3-3.9.8-5.7 1.1-3.6.7-3.9 1.2-6.3 11.6-2 8.6-2.4 27.2-.9 35.3.5 2.7 1.1 5.9 1.3 7 1 5.1 3.8 14.7 5.4 18.6l1.8 4.2 8.4-12.4c4.6-6.8 10.7-15.8 13.5-19.9 17.1-24.9 37.9-56.1 37.3-55.9-.2 0-10.6 2-23.1 4.4zm-13.1 60.9c-9.8 14.2-18 26.6-18.3 27.5-.9 3.4 7.9 16.1 18.1 26.3 9 8.9 26.4 20.6 36 24.1 1.9.8 2-.1.1-9.3-.2-1.4-.9-4.8-1.5-7.5-.5-2.8-1.2-6.4-1.5-8-.2-1.7-.9-5.5-1.5-8.5s-1.3-6.6-1.6-8c-1.1-6-6.5-34.7-7-37-.2-1.4-.6-3.6-.9-5-.3-1.4-.7-3.6-1-5-.3-1.4-.7-4.1-1-6-1.7-10.9-.4-11.9-19.9 16.4zm32.4 17c0 .2.9 4.9 1.9 10.3 1.1 5.4 2.2 11.4 2.5 13.3 1.8 10.9 7.4 39.1 7.9 39.6.3.4 3.7 1.5 7.4 2.6 9.1 2.6 29.8 3.2 40.8 1.2 10.3-1.9 27.9-7.4 26.8-8.4-.8-.8-83.4-56.8-86-58.4-.7-.4-1.3-.5-1.3-.2zm130.9 2.1c-6.3 1.3-12.9 2.6-14.5 2.9-12 2.2-25.3 4.7-27.4 5.1-1.4.3-12.4 2.4-24.5 4.6-12.1 2.3-22.2 4.3-22.4 4.6-.6.4-1 .1 28.3 20.4l24.1 16.7 4.5-2.3c17-8.6 38.5-33.3 44.8-51.3 1.3-3.8 2.5-3.7-12.9-.7z"/></svg>