<?xml version="1.0" standalone="no"?>
<!DOCTYPE svg PUBLIC "-//W3C//DTD SVG 20010904//EN"
 "http://www.w3.org/TR/2001/REC-SVG-20010904/DTD/svg10.dtd">
<svg version="1.0" xmlns="http://www.w3.org/2000/svg"
 width="260.000000pt" height="260.000000pt" viewBox="0 0 260.000000 260.000000"
 preserveAspectRatio="xMidYMid meet">
<metadata>
Created by potrace 1.11, written by Peter Selinger 2001-2013
</metadata>
<g transform="translate(0.000000,260.000000) scale(0.100000,-0.100000)"
fill="#000000" stroke="none">
<path d="M1160 2573 c-275 -46 -449 -116 -640 -257 -72 -53 -212 -203 -269
-285 -152 -222 -221 -435 -227 -701 -9 -396 149 -749 451 -1006 232 -198 500
-297 810 -298 193 -1 254 8 414 60 436 143 758 505 857 964 22 103 27 323 9
435 -19 121 -19 118 -55 226 -142 426 -507 748 -955 844 -76 16 -337 28 -395
18z m331 -109 c491 -79 886 -471 973 -964 23 -135 15 -359 -18 -484 -80 -300
-245 -532 -501 -703 -297 -199 -680 -246 -1032 -128 -318 107 -596 378 -719
700 -66 174 -90 427 -57 614 72 417 371 772 771 915 40 14 85 28 100 31 169
36 339 43 483 19z"/>
<path d="M1277 2374 c-1 -1 -33 -4 -72 -8 -88 -7 -113 -12 -203 -37 -73 -20
-142 -46 -142 -53 0 -6 857 -586 865 -586 7 0 5 14 -10 90 -3 14 -9 50 -15 80
-6 30 -12 66 -15 80 -3 14 -19 99 -35 190 -17 91 -33 172 -36 182 -4 14 -31
24 -114 43 -35 8 -217 24 -223 19z"/>
<path d="M1680 2297 c0 -2 13 -73 30 -158 16 -85 32 -170 35 -189 3 -19 15
-80 26 -135 11 -55 22 -115 25 -134 3 -18 8 -42 10 -52 8 -35 11 -53 40 -207
15 -84 31 -151 35 -150 4 2 88 120 187 263 l180 260 -23 45 c-54 107 -179 243
-305 332 -97 68 -240 143 -240 125z"/>
<path d="M730 2223 c-166 -98 -317 -266 -413 -458 -20 -38 -33 -73 -31 -76 2
-4 23 -2 46 3 24 5 54 12 68 14 14 2 36 7 50 9 14 3 39 8 55 11 17 2 86 16
155 29 69 13 141 27 160 30 19 3 80 15 135 25 55 11 111 21 125 24 101 18 206
39 220 44 13 5 -50 54 -245 190 -145 100 -267 182 -272 182 -4 0 -28 -12 -53
-27z"/>
<path d="M2163 1567 c-135 -202 -337 -500 -419 -620 l-54 -79 45 6 c25 4 50 8
57 11 7 2 30 6 50 9 21 3 57 10 80 15 24 6 57 12 73 15 325 58 334 60 344 86
39 100 53 257 36 411 -8 76 -46 227 -72 286 l-18 41 -122 -181z"/>
<path d="M667 1695 c-125 -24 -242 -46 -260 -49 -18 -3 -43 -8 -57 -11 -14 -3
-39 -8 -57 -11 -36 -7 -39 -12 -63 -116 -20 -86 -24 -272 -9 -353 5 -27 11
-59 13 -70 10 -51 38 -147 54 -186 l18 -42 84 124 c46 68 107 158 135 199 171
249 379 561 373 559 -2 0 -106 -20 -231 -44z"/>
<path d="M536 1086 c-98 -142 -180 -266 -183 -275 -9 -34 79 -161 181 -263 90
-89 264 -206 360 -241 19 -8 20 1 1 93 -2 14 -9 48 -15 75 -5 28 -12 64 -15
80 -2 17 -9 55 -15 85 -6 30 -13 66 -16 80 -11 60 -65 347 -70 370 -2 14 -6
36 -9 50 -3 14 -7 36 -10 50 -3 14 -7 41 -10 60 -17 109 -4 119 -199 -164z"/>
<path d="M860 916 c0 -2 9 -49 19 -103 11 -54 22 -114 25 -133 18 -109 74
-391 79 -396 3 -4 37 -15 74 -26 91 -26 298 -32 408 -12 103 19 279 74 268 84
-8 8 -834 568 -860 584 -7 4 -13 5 -13 2z"/>
<path d="M2169 895 c-63 -13 -129 -26 -145 -29 -120 -22 -253 -47 -274 -51
-14 -3 -124 -24 -245 -46 -121 -23 -222 -43 -224 -46 -6 -4 -10 -1 283 -204
l241 -167 45 23 c170 86 385 333 448 513 13 38 25 37 -129 7z"/>
</g>
</svg>
